<svg aria-hidden="true" style="position: absolute; width: 0; height: 0; overflow: hidden;" version="1.1"
    xmlns="http://www.w3.org/2000/svg" xmlns:xlink="http://www.w3.org/1999/xlink">
    <defs>
        <symbol id="icon-activity" viewBox="0 0 32 32">
            <path stroke-linejoin="round" stroke-linecap="round" stroke-miterlimit="4" stroke-width="3"
                d="M8.376 20.28l4.488-5.832 5.12 4.020 4.394-5.67"></path>
            <path stroke-linejoin="round" stroke-linecap="round" stroke-miterlimit="4" stroke-width="3"
                d="M27.5 1.524c0 0 0.001 0 0.001 0 1.592 0 2.882 1.29 2.882 2.882s-1.29 2.881-2.881 2.882h-0c-1.592 0-2.882-1.29-2.882-2.882s1.29-2.882 2.882-2.882v0z">
            </path>
            <path stroke-linejoin="round" stroke-linecap="round" stroke-miterlimit="4" stroke-width="3"
                d="M29.132 11.904c0.2 1.342 0.292 2.854 0.292 4.55 0 10.408-3.468 13.876-13.876 13.876-10.404 0-13.874-3.468-13.874-13.876 0-10.404 3.47-13.874 13.874-13.874 0.084-0.001 0.183-0.001 0.283-0.001 1.479 0 2.934 0.102 4.358 0.3l-0.165-0.019">
            </path>
        </symbol>
        <symbol id="icon-cart" viewBox="0 0 32 32">
            <path
                d="M22.876 27h-9.687c-4.14-0.005-7.495-3.36-7.5-7.5v-7.687c0-0.005 0-0.011 0-0.017 0-3.955-2.019-7.439-5.083-9.477l-0.042-0.026c-0.34-0.227-0.562-0.609-0.562-1.043 0-0.69 0.56-1.25 1.25-1.25 0.256 0 0.494 0.077 0.693 0.209l-0.005-0.003c1.803 1.198 3.275 2.752 4.345 4.571l0.035 0.065c0.229 0.257 2.081 2.22 5.117 2.22h14.395c3.927-0.073 7 3.867 5.973 7.659l-1.656 6.604c-0.841 3.285-3.775 5.675-7.267 5.675-0.003 0-0.005 0-0.008 0h0zM7.873 8.856c0.208 0.96 0.316 1.951 0.316 2.956v7.688c0.003 2.76 2.24 4.997 5 5h9.687c0.001 0 0.003 0 0.005 0 2.328 0 4.284-1.593 4.837-3.748l0.008-0.035 1.657-6.605c0.609-2.252-1.217-4.593-3.549-4.549h-14.395c-0.002 0-0.004 0-0.005 0-1.284 0-2.508-0.26-3.621-0.73l0.061 0.023zM12.564 30.437c0-0.863-0.7-1.563-1.563-1.563-2.073 0.083-2.072 3.044 0 3.125 0.863 0 1.563-0.7 1.563-1.563zM25.001 30.437c0-0.863-0.7-1.563-1.563-1.563-2.073 0.083-2.071 3.044 0 3.125 0.863 0 1.563-0.7 1.563-1.563zM27.083 13.312c-0.001-0.69-0.56-1.249-1.249-1.249h-13.893c-1.66 0.067-1.659 2.435 0 2.5h13.893c0.689 0 1.249-0.56 1.249-1.251z">
            </path>
        </symbol>
        <symbol id="icon-close" viewBox="0 0 32 32">
            <path
                d="M0.454 0.454c0.28-0.281 0.667-0.454 1.095-0.454s0.815 0.174 1.095 0.454v0l13.357 13.36 13.357-13.357c0.28-0.28 0.666-0.452 1.093-0.452 0.854 0 1.547 0.693 1.547 1.547 0 0.428-0.173 0.815-0.454 1.095v0l-13.352 13.354 13.357 13.357c0.28 0.28 0.452 0.666 0.452 1.093 0 0.854-0.693 1.547-1.547 1.547-0.428 0-0.815-0.173-1.095-0.454v0l-13.36-13.352-13.357 13.354c-0.28 0.28-0.666 0.452-1.093 0.452-0.854 0-1.547-0.693-1.547-1.547 0-0.428 0.173-0.815 0.454-1.095v0l13.352-13.357-13.354-13.357c-0.28-0.28-0.453-0.666-0.453-1.093s0.173-0.813 0.453-1.093v0z">
            </path>
        </symbol>
        <symbol id="icon-danger-triangle" viewBox="0 0 32 32">
            <path stroke-linejoin="round" stroke-linecap="round" stroke-miterlimit="4" stroke-width="3"
                d="M16 29.5c-9.74 0-13.564-0.692-14.184-4.196-0.62-3.502 3.344-10.088 4.566-12.26 4.086-7.27 6.864-10.544 9.618-10.544s5.532 3.276 9.618 10.542c1.22 2.174 5.186 8.76 4.566 12.262-0.618 3.504-4.442 4.196-14.184 4.196z">
            </path>
            <path stroke-linejoin="round" stroke-linecap="round" stroke-miterlimit="4" stroke-width="3"
                d="M16 10.75v5.842M15.994 21.842h0.012"></path>
        </symbol>
        <symbol id="icon-delete" viewBox="0 0 32 32">
            <path stroke-linejoin="round" stroke-linecap="round" stroke-miterlimit="4" stroke-width="2.2857"
                d="M25.737 13.035c0 12.221 1.758 17.743-10.072 17.743-11.832 0-10.037-5.524-10.037-17.743M27.985 8.35h-24.61M20.899 8.35s0.805-5.739-5.221-5.739c-6.024 0-5.219 5.739-5.219 5.739">
            </path>
        </symbol>
        <symbol id="icon-download" viewBox="0 0 32 32">
            <path stroke-linejoin="round" stroke-linecap="round" stroke-miterlimit="4" stroke-width="3"
                d="M15.82 20.186v-18.060M20.192 15.796l-4.372 4.392-4.376-4.392"></path>
            <path stroke-linejoin="round" stroke-linecap="round" stroke-miterlimit="4" stroke-width="3"
                d="M22.554 8.888c5.37 0.496 7.32 2.506 7.32 10.5 0 10.65-3.466 10.65-13.874 10.65-10.412 0-13.876 0-13.876-10.65 0-7.994 1.952-10.004 7.32-10.5">
            </path>
        </symbol>
        <symbol id="icon-facebook" viewBox="0 0 32 32">
            <path
                d="M12 10.666h-4v5.334h4v16h6.666v-16h4.8l0.534-5.334h-5.334v-2.266c0-1.2 0.268-1.734 1.468-1.734h3.866v-6.666h-5.066c-4.8 0-6.934 2.134-6.934 6.134v4.532z">
            </path>
        </symbol>
        <symbol id="icon-heart" viewBox="0 0 32 32">
            <path
                d="M16 30.219c-0.456 0-0.896-0.165-1.237-0.464-1.293-1.131-2.539-2.192-3.638-3.13l-0.006-0.005c-3.224-2.747-6.008-5.12-7.944-7.456-2.166-2.616-3.174-5.093-3.174-7.8 0-2.629 0.902-5.056 2.539-6.83 1.578-1.715 3.833-2.786 6.339-2.786 0.021 0 0.043 0 0.064 0l-0.003-0c0.010-0 0.022-0 0.034-0 1.895 0 3.636 0.655 5.011 1.75l-0.016-0.013c0.752 0.581 1.432 1.291 2.032 2.122 0.584-0.811 1.254-1.51 2.010-2.105l0.022-0.017c1.358-1.082 3.099-1.736 4.993-1.736 0.013 0 0.025 0 0.038 0h-0.002c2.47 0 4.744 0.989 6.4 2.786 1.64 1.776 2.539 4.202 2.539 6.832 0 2.704-1.008 5.184-3.173 7.795-1.938 2.336-4.72 4.71-7.944 7.456-1.102 0.939-2.352 2.003-3.646 3.136-0.342 0.299-0.781 0.464-1.237 0.464zM8.939 3.624c-0.016-0-0.034-0-0.053-0-1.964 0-3.733 0.839-4.967 2.178l-0.004 0.005c-1.315 1.429-2.042 3.403-2.042 5.56 0 2.277 0.848 4.312 2.744 6.602 1.832 2.211 4.56 4.536 7.717 7.226l0.006 0.005c1.104 0.941 2.354 2.008 3.656 3.146 1.312-1.141 2.563-2.208 3.67-3.152 3.157-2.688 5.883-5.013 7.717-7.224 1.896-2.288 2.742-4.325 2.742-6.602 0-2.157-0.726-4.131-2.043-5.56-1.238-1.344-3.007-2.183-4.971-2.183-0.018 0-0.036 0-0.054 0l0.003-0c-1.422 0-2.728 0.453-3.882 1.344-1.027 0.795-1.744 1.8-2.163 2.502-0.208 0.348-0.583 0.578-1.011 0.578-0.002 0-0.003 0-0.005 0h0c-0.002 0-0.004 0-0.005 0-0.428 0-0.802-0.229-1.008-0.571l-0.003-0.005c-0.419-0.704-1.136-1.709-2.163-2.504-1.050-0.838-2.396-1.344-3.86-1.344-0.007 0-0.015 0-0.022 0h0.001z">
            </path>
        </symbol>
        <symbol id="icon-hide" viewBox="0 0 32 32">
            <path stroke-linejoin="round" stroke-linecap="round" stroke-miterlimit="4" stroke-width="2.6667"
                d="M7.733 24.489c-3.303-2.164-5.436-5.422-5.436-8.281 0-4.86 6.133-10.816 13.703-10.816 3.097 0 5.972 0.994 8.283 2.533M27.63 10.978c1.319 1.675 2.089 3.527 2.089 5.23 0 4.859-6.148 10.814-13.719 10.814-1.348 0-2.665-0.192-3.895-0.533">
            </path>
            <path stroke-linejoin="round" stroke-linecap="round" stroke-miterlimit="4" stroke-width="2.6667"
                d="M12.69 19.508c-0.845-0.838-1.369-2-1.369-3.283 0-0.007 0-0.014 0-0.021v0.001c0-0.002 0-0.005 0-0.008 0-2.585 2.096-4.681 4.681-4.681 1.292 0 2.462 0.523 3.308 1.37l-0-0M20.608 17.036c-0.358 1.916-1.843 3.403-3.729 3.759l-0.029 0.005M27.692 4.519l-23.369 23.369">
            </path>
        </symbol>
        <symbol id="icon-image" viewBox="0 0 32 32">
            <path stroke-linejoin="round" stroke-linecap="round" stroke-miterlimit="4" stroke-width="2.4"
                d="M1.2 16c0 11.099 3.701 14.8 14.8 14.8s14.8-3.701 14.8-14.8c0-11.099-3.701-14.8-14.8-14.8s-14.8 3.701-14.8 14.8z">
            </path>
            <path stroke-linejoin="round" stroke-linecap="round" stroke-miterlimit="4" stroke-width="2.4"
                d="M13.757 10.854c0 0 0 0.001 0 0.001 0 1.555-1.261 2.816-2.816 2.816s-2.816-1.26-2.816-2.815v-0c0-1.555 1.261-2.816 2.816-2.816s2.816 1.261 2.816 2.816v0z">
            </path>
            <path stroke-linejoin="round" stroke-linecap="round" stroke-miterlimit="4" stroke-width="2.4"
                d="M30.592 20.266c-1.41-1.45-3.403-4.379-7.066-4.379-3.664 0-3.744 6.461-7.48 6.461-3.739 0-5.245-2.192-7.682-1.048-2.435 1.144-4.419 5.698-4.419 5.698">
            </path>
        </symbol>
        <symbol id="icon-instagram" viewBox="0 0 32 32">
            <path
                d="M16 2.934c4.266 0 4.8 0 6.534 0.132 4.4 0.134 6.4 2.268 6.532 6.534 0.134 1.734 0.134 2.134 0.134 6.4s0 4.8-0.134 6.4c-0.132 4.266-2.266 6.4-6.532 6.534-1.734 0.132-2.134 0.132-6.534 0.132-4.266 0-4.8 0-6.4-0.132-4.4-0.134-6.4-2.268-6.534-6.534-0.132-1.734-0.132-2.134-0.132-6.4s0-4.8 0.132-6.4c0.134-4.266 2.268-6.4 6.534-6.534 1.6-0.132 2.134-0.132 6.4-0.132zM16 0c-4.4 0-4.934 0-6.534 0.134-5.866 0.266-9.066 3.466-9.332 9.332-0.134 1.6-0.134 2.134-0.134 6.534s0 4.934 0.134 6.534c0.266 5.866 3.466 9.066 9.332 9.332 1.6 0.134 2.134 0.134 6.534 0.134s4.934 0 6.534-0.134c5.866-0.266 9.066-3.466 9.332-9.332 0.134-1.6 0.134-2.134 0.134-6.534s0-4.934-0.134-6.534c-0.266-5.866-3.466-9.066-9.332-9.332-1.6-0.134-2.134-0.134-6.534-0.134zM16 7.734c-4.534 0-8.266 3.732-8.266 8.266s3.732 8.266 8.266 8.266 8.266-3.732 8.266-8.266-3.732-8.266-8.266-8.266zM16 21.334c-2.942-0.009-5.325-2.392-5.334-5.333v-0.001c0-2.934 2.4-5.334 5.334-5.334s5.334 2.4 5.334 5.334c0 2.934-2.4 5.334-5.334 5.334zM24.534 5.6c-1.068 0-1.868 0.8-1.868 1.866 0 1.068 0.8 1.868 1.868 1.868 1.066 0 1.866-0.8 1.866-1.868 0-1.066-0.8-1.866-1.866-1.866z">
            </path>
        </symbol>
        <symbol id="icon-linkedin" viewBox="0 0 32 32">
            <path
                d="M6.666 3.334c0 0.010 0 0.021 0 0.032 0 1.823-1.477 3.3-3.3 3.3-0.011 0-0.023-0-0.034-0h0.002c-0.010 0-0.022 0-0.034 0-1.823 0-3.3-1.477-3.3-3.3 0-0.011 0-0.023 0-0.034v0.002c-0-0.010-0-0.022-0-0.034 0-1.823 1.477-3.3 3.3-3.3 0.012 0 0.024 0 0.036 0h-0.002c0.010-0 0.021-0 0.032-0 1.823 0 3.3 1.477 3.3 3.3 0 0.012-0 0.024-0 0.036v-0.002zM6.666 9.334h-6.666v21.332h6.666v-21.332zM17.334 9.334h-6.668v21.332h6.668v-11.2c0-6.266 8-6.8 8 0v11.2h6.666v-13.466c0-10.534-11.866-10.134-14.666-4.934v-2.932z">
            </path>
        </symbol>
        <symbol id="icon-location" viewBox="0 0 32 32">
            <path
                d="M15.463 11.538c-0.001 0-0.002 0-0.004 0-1.489 0-2.695 1.207-2.695 2.695s1.207 2.695 2.695 2.695c1.489 0 2.695-1.207 2.695-2.695v0c0 0 0 0 0 0 0-1.487-1.205-2.693-2.692-2.695h-0zM15.463 19.231c-2.76-0.001-4.998-2.237-5.001-4.997v-0c0.002-2.762 2.24-5 5.001-5.003h0c2.761 0.004 4.997 2.242 4.999 5.003v0c-0.003 2.759-2.239 4.994-4.997 4.998h-0z">
            </path>
            <path
                d="M15.461 3.847c-5.727 0-10.385 4.702-10.385 10.481 0 7.353 8.653 14.516 10.385 14.898 1.732-0.384 10.385-7.547 10.385-14.898 0-5.778-4.658-10.481-10.385-10.481zM15.461 31.539c-2.76 0-12.692-8.542-12.692-17.212 0-7.052 5.694-12.788 12.692-12.788 6.997 0 12.692 5.736 12.692 12.788 0 8.669-9.932 17.212-12.692 17.212z">
            </path>
        </symbol>
        <symbol id="icon-login" viewBox="0 0 32 32">
            <path stroke-linejoin="round" stroke-linecap="round" stroke-miterlimit="4" stroke-width="2.6667"
                d="M30.507 16.178h-17.838M26.171 11.858l4.338 4.32-4.338 4.32M22.46 9.525c-0.489-5.303-2.475-7.228-10.37-7.228-10.521 0-10.521 3.422-10.521 13.703s0 13.703 10.521 13.703c7.895 0 9.881-1.925 10.37-7.228">
            </path>
        </symbol>
        <symbol id="icon-message" viewBox="0 0 32 32">
            <path
                d="M16 5.525c-3.622 0-8.559 0.314-11.691 0.542-1.041 0.075-1.847 0.898-1.847 1.905v1.137l12.542 6.588c0.619 0.326 1.374 0.326 1.993 0l12.544-6.588v-1.137c0-1.007-0.809-1.83-1.85-1.905-3.134-0.228-8.068-0.54-11.691-0.54zM29.538 11.772l-11.347 5.961c-0.636 0.338-1.39 0.536-2.191 0.536s-1.555-0.198-2.217-0.549l0.026 0.012-11.349-5.961v12.256c0 1.007 0.809 1.83 1.85 1.905 3.132 0.228 8.068 0.54 11.691 0.54s8.557-0.311 11.691-0.54c1.041-0.075 1.847-0.898 1.847-1.905v-12.256zM4.12 3.746c3.134-0.228 8.154-0.546 11.88-0.546s8.747 0.318 11.883 0.546c2.342 0.171 4.117 2.022 4.117 4.226v16.055c0 2.204-1.775 4.055-4.117 4.226-3.136 0.228-8.158 0.546-11.883 0.546-3.727 0-8.747-0.318-11.883-0.546-2.342-0.171-4.117-2.022-4.117-4.226v-16.055c0-2.204 1.775-4.055 4.117-4.226z">
            </path>
        </symbol>
        <symbol id="icon-search" viewBox="0 0 32 32">
            <path
                d="M23.317 25.605c-6.397 5.093-15.336 3.685-20.072-2.158-4.57-5.64-4.283-13.776 0.674-18.928 5.123-5.318 13.178-6.029 19.018-1.662 2.043 1.523 3.642 3.534 4.637 5.865l0.035 0.093c0.71 1.628 1.123 3.526 1.123 5.519 0 0.713-0.053 1.413-0.155 2.097l0.009-0.077c-0.352 2.587-1.386 4.891-3.066 7.043 0.136 0.088 0.28 0.152 0.384 0.256 1.848 1.84 3.688 3.683 5.536 5.522 0.437 0.435 0.654 0.944 0.525 1.555-0.153 0.731-0.792 1.273-1.558 1.273-0.417 0-0.796-0.16-1.079-0.422l0.001 0.001c-0.435-0.39-0.837-0.822-1.251-1.235l-4.55-4.547c-0.062-0.061-0.128-0.117-0.21-0.192zM25.536 14.379c0.016-6.176-4.971-11.168-11.163-11.178-0.013-0-0.029-0-0.045-0-6.145 0-11.128 4.973-11.144 11.114v0.002c-0 0.016-0 0.035-0 0.054 0 6.167 4.997 11.167 11.163 11.173h0.001c6.15 0.029 11.171-4.984 11.187-11.165z">
            </path>
        </symbol>
        <symbol id="icon-twitter" viewBox="0 0 32 32">
            <path
                d="M10.064 29.008c12.076 0 18.68-10.006 18.68-18.68 0-0.286-0.006-0.568-0.020-0.85 1.29-0.94 2.377-2.066 3.246-3.351l0.030-0.047c-1.098 0.501-2.371 0.865-3.707 1.028l-0.063 0.006c1.358-0.823 2.379-2.086 2.875-3.587l0.013-0.047c-1.2 0.725-2.597 1.278-4.085 1.58l-0.084 0.014c-1.201-1.283-2.906-2.082-4.797-2.082-3.626 0-6.566 2.94-6.566 6.566 0 0.534 0.064 1.052 0.184 1.549l-0.009-0.045c-5.469-0.283-10.279-2.883-13.504-6.829l-0.026-0.033c-0.562 0.947-0.894 2.088-0.894 3.306 0 2.268 1.151 4.267 2.901 5.445l0.023 0.015c-1.097-0.034-2.117-0.334-3.006-0.837l0.032 0.017v0.084c0.001 3.166 2.241 5.808 5.223 6.429l0.043 0.007c-0.517 0.146-1.111 0.23-1.725 0.23-0.439 0-0.868-0.043-1.283-0.125l0.042 0.007c0.864 2.629 3.273 4.504 6.128 4.56l0.007 0c-2.218 1.756-5.056 2.817-8.142 2.817-0.556 0-1.105-0.034-1.643-0.101l0.064 0.007c2.84 1.85 6.315 2.95 10.048 2.95 0.006 0 0.011 0 0.017 0h-0.001z">
            </path>
        </symbol>
        <symbol id="icon-union" viewBox="0 0 32 32">
            <path
                d="M25.541 11.672v0zM7.284 11.549c4.367-0.271 12.502-0.271 16.871 0v0.012c0.106 1.066 0.148 2.488 0.148 4.472 0 1.959-0.042 3.382-0.145 4.456-4.46 0.177-12.418 0.177-16.877 0-0.104-1.064-0.147-2.483-0.147-4.456 0-1.984 0.042-3.405 0.148-4.472v-0.012zM25.669 20.396v0.002zM5.891 20.392h-0.002zM0 16.032c0 8.121 0.655 11.134 5.763 11.527 4.716 0.263 15.195 0.263 19.911 0 5.108-0.261 5.763-3.405 5.763-11.527s-0.655-11.133-5.763-11.527c-4.716-0.392-15.195-0.392-19.911 0-5.107 0.392-5.763 3.405-5.763 11.527zM5.891 11.673l0.003-0.002h-0.005zM16.475 18.929c-0.422 0.216-0.92 0.342-1.448 0.342-1.789 0-3.239-1.45-3.239-3.239s1.45-3.239 3.239-3.239c0.528 0 1.026 0.126 1.467 0.35l-0.018-0.008c2.387 1.194 2.387 4.6 0 5.794z">
            </path>
        </symbol>
        <symbol id="icon-user" viewBox="0 0 32 32">
            <path
                d="M16 2.462c-0.005 0-0.011-0-0.017-0-2.949 0-5.341 2.386-5.35 5.332v0.001c0 2.944 2.402 5.333 5.368 5.333s5.368-2.389 5.368-5.333-2.402-5.333-5.368-5.333zM8.156 7.795c0-4.305 3.512-7.795 7.844-7.795s7.844 3.49 7.844 7.795-3.512 7.795-7.844 7.795-7.844-3.49-7.844-7.795zM11.947 21.333c-0.006-0-0.014-0-0.021-0-3.444 0-6.238 2.787-6.248 6.228v0.001c0 0.179 0.034 0.307 0.068 0.382 0.030 0.064 0.056 0.079 0.077 0.092 0.96 0.52 3.661 1.502 10.178 1.502s9.216-0.981 10.178-1.502c0.021-0.011 0.047-0.030 0.077-0.092 0.044-0.104 0.069-0.224 0.069-0.35 0-0.012-0-0.024-0.001-0.035l0 0.002c-0.012-3.442-2.805-6.227-6.248-6.227-0.008 0-0.015 0-0.022 0h-8.106zM3.2 27.563c0-4.8 3.915-8.691 8.747-8.691h8.107c4.83 0 8.747 3.891 8.747 8.689 0 0.881-0.32 2.035-1.438 2.637-1.478 0.8-4.651 1.803-11.362 1.803-6.714 0-9.884-1.003-11.362-1.803-1.118-0.602-1.438-1.754-1.438-2.635z">
            </path>
        </symbol>
        <symbol id="icon-mail" viewBox="0 0 32 32">
            <path stroke-linejoin="round" stroke-linecap="round" stroke-miterlimit="4" stroke-width="2.6667"
                d="M24.215 11.584s-4.756 5.708-8.234 5.708c-3.477 0-8.286-5.708-8.286-5.708"></path>
            <path stroke-linejoin="round" stroke-linecap="round" stroke-miterlimit="4" stroke-width="2.6667"
                d="M1.855 15.954c0-10.131 3.527-13.506 14.109-13.506s14.109 3.376 14.109 13.506c0 10.129-3.527 13.506-14.109 13.506s-14.109-3.377-14.109-13.506z">
            </path>
        </symbol>
        <symbol id="icon-phone" viewBox="0 0 32 32">
            <path stroke-linejoin="round" stroke-linecap="round" stroke-miterlimit="4" stroke-width="2.5263"
                d="M20.144 2.176c5.194 0.577 9.298 4.675 9.882 9.869M20.144 7.148c2.486 0.483 4.428 2.427 4.912 4.912M10.808 21.192c-9.681-9.682-8.305-14.116-7.284-15.545 0.131-0.231 3.363-5.068 6.827-2.23 8.598 7.081-2.287 6.080 4.933 13.301 7.222 7.22 6.219-3.665 13.3 4.931 2.838 3.465-2 6.697-2.229 6.826-1.429 1.022-5.864 2.399-15.547-7.284z">
            </path>
        </symbol>
        <symbol id="icon-arrow" viewBox="0 0 32 32">
            <path stroke-linejoin="round" stroke-linecap="round" stroke-miterlimit="4" stroke-width="3"
                d="M30.404 15.471h-28.888M18.753 3.867s11.651 6.283 11.651 11.601c0 5.324-11.651 11.607-11.651 11.607">
            </path>
        </symbol>
    </defs>
</svg>